<svg xmlns="http://www.w3.org/2000/svg" xmlns:xlink="http://www.w3.org/1999/xlink" width="500" zoomAndPan="magnify" viewBox="0 0 375 374.999991" height="500" preserveAspectRatio="xMidYMid meet" version="1.0"><defs><clipPath id="5643e50c23"><path d="M 15.421875 15.421875 L 359.671875 15.421875 L 359.671875 359.671875 L 15.421875 359.671875 Z M 15.421875 15.421875 " clip-rule="nonzero"/></clipPath></defs><g clip-path="url(#5643e50c23)"><path fill="#d9d9d9" d="M 359.539062 187.46875 C 359.539062 282.5 282.503906 359.535156 187.472656 359.535156 C 92.441406 359.535156 15.402344 282.5 15.402344 187.46875 C 15.402344 92.4375 92.441406 15.402344 187.472656 15.402344 C 282.503906 15.402344 359.539062 92.4375 359.539062 187.46875 Z M 359.539062 187.46875 " fill-opacity="1" fill-rule="nonzero"/></g><path fill="#0e2e59" d="M 122.503906 101.765625 L 255.90625 101.765625 C 268.578125 101.765625 278.9375 112.128906 278.9375 124.800781 L 278.9375 258.203125 C 278.9375 270.871094 268.578125 281.230469 255.90625 281.230469 L 122.503906 281.230469 C 109.832031 281.230469 99.460938 270.871094 99.460938 258.203125 L 99.460938 124.800781 C 99.460938 112.128906 109.832031 101.765625 122.503906 101.765625 Z M 230.207031 121.695312 C 225.757812 121.695312 222.128906 125.34375 222.128906 129.789062 L 222.128906 149.113281 C 222.128906 153.570312 225.757812 157.203125 230.207031 157.203125 L 250.488281 157.203125 C 254.929688 157.203125 258.570312 153.570312 258.570312 149.113281 L 258.570312 129.789062 C 258.570312 125.34375 254.929688 121.695312 250.488281 121.695312 Z M 258.648438 177.65625 L 242.855469 177.65625 C 244.355469 182.550781 245.164062 187.703125 245.164062 193.066406 C 245.164062 222.910156 220.175781 247.117188 189.367188 247.117188 C 158.5625 247.117188 133.578125 222.910156 133.578125 193.066406 C 133.578125 187.703125 134.398438 182.550781 135.886719 177.65625 L 119.414062 177.65625 L 119.414062 253.476562 C 119.414062 257.402344 122.617188 260.59375 126.539062 260.59375 L 251.519531 260.59375 C 255.449219 260.59375 258.648438 257.402344 258.648438 253.476562 Z M 189.367188 156.183594 C 169.46875 156.183594 153.328125 171.816406 153.328125 191.117188 C 153.328125 210.394531 169.46875 226.039062 189.367188 226.039062 C 209.277344 226.039062 225.417969 210.394531 225.417969 191.117188 C 225.417969 171.816406 209.277344 156.183594 189.367188 156.183594 Z M 189.367188 156.183594 " fill-opacity="1" fill-rule="nonzero"/></svg>