<svg xmlns="http://www.w3.org/2000/svg" xmlns:xlink="http://www.w3.org/1999/xlink" width="1080" zoomAndPan="magnify" viewBox="0 0 810 809.999993" height="1080" preserveAspectRatio="xMidYMid meet" version="1.0"><defs><clipPath id="6ce6d4b1a7"><path d="M 104.953125 226.886719 L 347.953125 226.886719 L 347.953125 469.886719 L 104.953125 469.886719 Z M 104.953125 226.886719 " clip-rule="nonzero"/></clipPath><clipPath id="94ae2df5fb"><path d="M 101 692 L 735 692 L 735 785.179688 L 101 785.179688 Z M 101 692 " clip-rule="nonzero"/></clipPath><clipPath id="6a96cee1c9"><path d="M 63 24.679688 L 375 24.679688 L 375 42 L 63 42 Z M 63 24.679688 " clip-rule="nonzero"/></clipPath><clipPath id="11e26da0dd"><path d="M 24.679688 114 L 365 114 L 365 186 L 24.679688 186 Z M 24.679688 114 " clip-rule="nonzero"/></clipPath><clipPath id="295a87a5ba"><path d="M 479 33 L 785.179688 33 L 785.179688 606 L 479 606 Z M 479 33 " clip-rule="nonzero"/></clipPath></defs><g clip-path="url(#6ce6d4b1a7)"><path fill="#997346" d="M 104.953125 226.886719 L 347.953125 226.886719 L 347.953125 469.886719 L 104.953125 469.886719 Z M 104.953125 226.886719 " fill-opacity="1" fill-rule="nonzero"/></g><g clip-path="url(#94ae2df5fb)"><path fill="#d8b0ac" d="M 190.5 692.511719 L 645.171875 692.511719 L 734.324219 785.230469 L 101.347656 785.230469 Z M 190.5 692.511719 " fill-opacity="1" fill-rule="nonzero"/></g><path fill="#e83640" d="M 198.386719 701.429688 L 637.289062 701.429688 L 709.363281 776.316406 L 126.3125 776.316406 Z M 198.386719 701.429688 " fill-opacity="1" fill-rule="nonzero"/><path fill="#253036" d="M 240.210938 319.886719 C 240.691406 319.765625 241.171875 320.058594 241.289062 320.539062 L 292.550781 526.921875 C 292.671875 527.402344 292.382812 527.882812 291.902344 528 C 291.425781 528.121094 290.941406 527.832031 290.824219 527.351562 L 239.5625 320.96875 C 239.441406 320.488281 239.734375 320.003906 240.210938 319.886719 Z M 551.804688 329.699219 C 552.28125 329.832031 552.554688 330.324219 552.421875 330.796875 L 524.117188 431.539062 C 523.984375 432.015625 523.492188 432.289062 523.019531 432.15625 C 522.542969 432.023438 522.265625 431.53125 522.402344 431.058594 L 550.707031 330.316406 C 550.839844 329.84375 551.332031 329.566406 551.804688 329.699219 Z M 391.089844 329.667969 C 391.582031 329.667969 391.984375 330.066406 391.984375 330.558594 L 391.984375 532.039062 C 391.984375 532.53125 391.582031 532.933594 391.089844 532.933594 C 390.597656 532.933594 390.199219 532.53125 390.199219 532.039062 L 390.199219 330.558594 C 390.199219 330.066406 390.597656 329.667969 391.089844 329.667969 Z M 724.980469 365.457031 C 725.402344 365.714844 725.535156 366.261719 725.28125 366.683594 L 501.507812 733.984375 C 501.253906 734.40625 500.707031 734.539062 500.285156 734.285156 C 499.863281 734.027344 499.730469 733.480469 499.988281 733.058594 L 723.757812 365.753906 C 724.015625 365.335938 724.5625 365.199219 724.980469 365.457031 Z M 75.046875 382.386719 C 75.472656 382.140625 76.019531 382.285156 76.265625 382.707031 L 280.421875 733.074219 C 280.671875 733.5 280.527344 734.046875 280.101562 734.292969 C 279.675781 734.539062 279.128906 734.394531 278.882812 733.972656 L 74.726562 383.605469 C 74.476562 383.179688 74.621094 382.636719 75.046875 382.386719 Z M 495.195312 531.183594 C 495.667969 531.316406 495.945312 531.808594 495.8125 532.28125 L 439.199219 733.761719 C 439.066406 734.238281 438.574219 734.515625 438.101562 734.378906 C 437.628906 734.25 437.351562 733.757812 437.484375 733.28125 L 494.09375 531.800781 C 494.226562 531.324219 494.71875 531.050781 495.195312 531.183594 Z M 317.105469 629.464844 C 317.582031 629.34375 318.066406 629.636719 318.183594 630.117188 L 331 681.710938 C 331.117188 682.1875 330.828125 682.671875 330.347656 682.792969 C 329.871094 682.910156 329.386719 682.617188 329.269531 682.140625 L 316.453125 630.546875 C 316.335938 630.066406 316.628906 629.582031 317.105469 629.464844 Z M 317.105469 629.464844 " fill-opacity="1" fill-rule="evenodd"/><path fill="#253036" d="M 373.035156 64.335938 C 373.035156 47.449219 359.347656 33.761719 342.464844 33.761719 L 97.867188 33.761719 C 80.980469 33.761719 67.292969 47.449219 67.292969 64.335938 L 67.292969 575.109375 C 67.292969 591.996094 80.980469 605.683594 97.867188 605.683594 L 342.464844 605.683594 C 359.347656 605.683594 373.035156 591.996094 373.035156 575.109375 Z M 373.035156 64.335938 " fill-opacity="1" fill-rule="nonzero"/><path fill="#d8b0ac" d="M 362.242188 72.476562 C 362.242188 60.035156 352.15625 49.949219 339.714844 49.949219 L 100.609375 49.949219 C 88.167969 49.949219 78.082031 60.035156 78.082031 72.476562 L 78.082031 547.183594 C 78.082031 559.628906 88.167969 569.714844 100.609375 569.714844 L 339.714844 569.714844 C 352.15625 569.714844 362.242188 559.628906 362.242188 547.183594 Z M 362.242188 72.476562 " fill-opacity="1" fill-rule="nonzero"/><path fill="#f2f2f2" d="M 374.574219 41.917969 L 63.96875 41.917969 L 25.859375 114.328125 L 412.6875 114.328125 Z M 374.574219 41.917969 " fill-opacity="1" fill-rule="nonzero"/><path fill="#e83640" d="M 25.859375 114.328125 L 63.96875 41.917969 L 102.792969 41.917969 L 74.210938 114.328125 Z M 25.859375 114.328125 " fill-opacity="1" fill-rule="nonzero"/><path fill="#e83640" d="M 296.921875 41.917969 L 315.976562 114.328125 L 364.332031 114.328125 L 335.75 41.917969 Z M 296.921875 41.917969 " fill-opacity="1" fill-rule="nonzero"/><path fill="#e83640" d="M 219.273438 114.328125 L 219.273438 41.917969 L 258.097656 41.917969 L 267.625 114.328125 Z M 219.273438 114.328125 " fill-opacity="1" fill-rule="nonzero"/><path fill="#e83640" d="M 122.566406 114.328125 L 141.621094 41.917969 L 180.445312 41.917969 L 170.917969 114.328125 Z M 122.566406 114.328125 " fill-opacity="1" fill-rule="nonzero"/><g clip-path="url(#6a96cee1c9)"><path fill="#e83640" d="M 180.449219 41.917969 L 374.574219 41.917969 L 374.574219 26.378906 C 374.574219 25.488281 373.855469 24.769531 372.96875 24.769531 L 65.578125 24.769531 C 64.691406 24.769531 63.96875 25.488281 63.96875 26.378906 L 63.96875 41.917969 Z M 180.449219 41.917969 " fill-opacity="1" fill-rule="nonzero"/></g><path fill="#f2f2f2" d="M 412.6875 114.328125 L 365.046875 114.328125 L 365.046875 161.015625 C 365.046875 174.171875 375.710938 184.835938 388.867188 184.835938 C 402.023438 184.835938 412.6875 174.171875 412.6875 161.015625 Z M 412.6875 114.328125 " fill-opacity="1" fill-rule="nonzero"/><path fill="#f2f2f2" d="M 315.695312 114.328125 L 268.054688 114.328125 L 268.054688 161.015625 C 268.054688 174.171875 278.71875 184.835938 291.875 184.835938 C 305.03125 184.835938 315.695312 174.171875 315.695312 161.015625 Z M 315.695312 114.328125 " fill-opacity="1" fill-rule="nonzero"/><path fill="#f2f2f2" d="M 218.699219 114.328125 L 171.058594 114.328125 L 171.058594 161.015625 C 171.058594 174.171875 181.726562 184.835938 194.878906 184.835938 C 208.035156 184.835938 218.699219 174.171875 218.699219 161.015625 Z M 218.699219 114.328125 " fill-opacity="1" fill-rule="nonzero"/><path fill="#f2f2f2" d="M 121.707031 114.328125 L 74.066406 114.328125 L 74.066406 161.015625 C 74.066406 174.171875 84.730469 184.835938 97.886719 184.835938 C 111.039062 184.835938 121.707031 174.171875 121.707031 161.015625 Z M 121.707031 114.328125 " fill-opacity="1" fill-rule="nonzero"/><path fill="#253036" d="M 411.882812 114.328125 L 411.882812 161.015625 C 411.882812 173.726562 401.578125 184.03125 388.867188 184.03125 C 376.15625 184.03125 365.851562 173.726562 365.851562 161.015625 L 365.851562 114.328125 L 364.242188 114.328125 L 364.242188 161.015625 C 364.242188 174.613281 375.265625 185.636719 388.867188 185.636719 C 402.464844 185.636719 413.488281 174.613281 413.488281 161.015625 L 413.488281 114.328125 Z M 314.886719 114.328125 L 314.886719 161.015625 C 314.886719 173.726562 304.585938 184.03125 291.875 184.03125 C 279.164062 184.03125 268.859375 173.726562 268.859375 161.015625 L 268.859375 114.328125 L 267.25 114.328125 L 267.25 161.015625 C 267.25 174.613281 278.273438 185.636719 291.875 185.636719 C 305.472656 185.636719 316.5 174.613281 316.5 161.015625 L 316.5 114.328125 Z M 217.894531 114.328125 L 217.894531 161.015625 C 217.894531 173.726562 207.589844 184.03125 194.878906 184.03125 C 182.167969 184.03125 171.863281 173.726562 171.863281 161.015625 L 171.863281 114.328125 L 170.257812 114.328125 L 170.257812 161.015625 C 170.257812 174.613281 181.28125 185.636719 194.878906 185.636719 C 208.480469 185.636719 219.503906 174.613281 219.503906 161.015625 L 219.503906 114.328125 Z M 120.902344 114.328125 L 120.902344 161.015625 C 120.902344 173.726562 110.597656 184.03125 97.886719 184.03125 C 85.175781 184.03125 74.871094 173.726562 74.871094 161.015625 L 74.871094 114.328125 L 73.261719 114.328125 L 73.261719 161.015625 C 73.261719 174.613281 84.285156 185.636719 97.886719 185.636719 C 111.484375 185.636719 122.507812 174.613281 122.507812 161.015625 L 122.507812 114.328125 Z M 120.902344 114.328125 " fill-opacity="1" fill-rule="evenodd"/><path fill="#e83640" d="M 364.191406 114.328125 L 316.550781 114.328125 L 316.550781 161.015625 C 316.550781 174.171875 327.214844 184.835938 340.371094 184.835938 C 353.527344 184.835938 364.191406 174.171875 364.191406 161.015625 Z M 364.191406 114.328125 " fill-opacity="1" fill-rule="nonzero"/><path fill="#e83640" d="M 267.195312 114.328125 L 219.558594 114.328125 L 219.558594 161.015625 C 219.558594 174.171875 230.222656 184.835938 243.378906 184.835938 C 256.53125 184.835938 267.195312 174.171875 267.195312 161.015625 Z M 267.195312 114.328125 " fill-opacity="1" fill-rule="nonzero"/><path fill="#e83640" d="M 170.203125 114.328125 L 122.566406 114.328125 L 122.566406 161.015625 C 122.566406 174.171875 133.230469 184.835938 146.386719 184.835938 C 159.539062 184.835938 170.203125 174.171875 170.203125 161.015625 Z M 170.203125 114.328125 " fill-opacity="1" fill-rule="nonzero"/><path fill="#e83640" d="M 73.210938 114.328125 L 25.570312 114.328125 L 25.570312 161.015625 C 25.570312 174.171875 36.234375 184.835938 49.390625 184.835938 C 62.546875 184.835938 73.210938 174.171875 73.210938 161.015625 Z M 73.210938 114.328125 " fill-opacity="1" fill-rule="nonzero"/><g clip-path="url(#11e26da0dd)"><path fill="#253036" d="M 363.386719 114.328125 L 363.386719 161.015625 C 363.386719 173.726562 353.082031 184.03125 340.371094 184.03125 C 327.660156 184.03125 317.355469 173.726562 317.355469 161.015625 L 317.355469 114.328125 L 315.746094 114.328125 L 315.746094 161.015625 C 315.746094 174.613281 326.773438 185.636719 340.371094 185.636719 C 353.972656 185.636719 364.996094 174.613281 364.996094 161.015625 L 364.996094 114.328125 Z M 266.390625 114.328125 L 266.390625 161.015625 C 266.390625 173.726562 256.085938 184.03125 243.375 184.03125 C 230.667969 184.03125 220.363281 173.726562 220.363281 161.015625 L 220.363281 114.328125 L 218.753906 114.328125 L 218.753906 161.015625 C 218.753906 174.613281 229.777344 185.636719 243.375 185.636719 C 256.976562 185.636719 268.003906 174.613281 268.003906 161.015625 L 268.003906 114.328125 Z M 169.402344 114.328125 L 169.402344 161.015625 C 169.402344 173.726562 159.097656 184.03125 146.386719 184.03125 C 133.675781 184.03125 123.371094 173.726562 123.371094 161.015625 L 123.371094 114.328125 L 121.761719 114.328125 L 121.761719 161.015625 C 121.761719 174.613281 132.785156 185.636719 146.386719 185.636719 C 159.984375 185.636719 171.007812 174.613281 171.007812 161.015625 L 171.007812 114.328125 Z M 72.40625 114.328125 L 72.40625 161.015625 C 72.40625 173.726562 62.101562 184.03125 49.390625 184.03125 C 36.679688 184.03125 26.375 173.726562 26.375 161.015625 L 26.375 114.328125 L 24.765625 114.328125 L 24.765625 161.015625 C 24.765625 174.613281 35.789062 185.636719 49.390625 185.636719 C 62.988281 185.636719 74.015625 174.613281 74.015625 161.015625 L 74.015625 114.328125 Z M 72.40625 114.328125 " fill-opacity="1" fill-rule="evenodd"/></g><path fill="#253036" d="M 63.96875 41.113281 L 374.574219 41.113281 L 374.574219 42.722656 L 63.96875 42.722656 Z M 63.96875 41.113281 " fill-opacity="1" fill-rule="evenodd"/><g clip-path="url(#295a87a5ba)"><path fill="#253036" d="M 785.339844 64.257812 C 785.339844 47.371094 771.652344 33.683594 754.765625 33.683594 L 510.167969 33.683594 C 493.285156 33.683594 479.59375 47.371094 479.59375 64.257812 L 479.59375 575.03125 C 479.59375 591.917969 493.285156 605.605469 510.167969 605.605469 L 754.765625 605.605469 C 771.652344 605.605469 785.339844 591.917969 785.339844 575.03125 Z M 785.339844 64.257812 " fill-opacity="1" fill-rule="nonzero"/></g><path fill="#d8b0ac" d="M 490.386719 547.109375 L 490.386719 72.398438 C 490.386719 59.957031 500.472656 49.871094 512.914062 49.871094 L 586.71875 49.871094 C 588.8125 49.871094 590.507812 51.566406 590.507812 53.660156 C 590.507812 63.433594 598.429688 71.355469 608.203125 71.355469 L 656.726562 71.355469 C 666.5 71.355469 674.425781 63.433594 674.425781 53.660156 C 674.425781 51.566406 676.121094 49.871094 678.214844 49.871094 L 752.019531 49.871094 C 764.460938 49.871094 774.546875 59.957031 774.546875 72.398438 L 774.546875 547.109375 C 774.546875 559.550781 764.460938 569.636719 752.019531 569.636719 L 512.914062 569.636719 C 500.472656 569.636719 490.386719 559.550781 490.386719 547.109375 Z M 490.386719 547.109375 " fill-opacity="1" fill-rule="nonzero"/><path fill="#fcbfbc" d="M 309.964844 400.097656 C 312.101562 395.105469 312.042969 384.941406 311.746094 380.484375 C 305.328125 384.046875 292.429688 381.96875 286.785156 380.484375 C 285.296875 386.722656 283.21875 405.445312 286.785156 412.578125 C 291.242188 421.492188 348.300781 420.601562 364.347656 423.277344 C 370.050781 426.839844 369.695312 417.332031 370.585938 412.578125 C 355.609375 401.164062 322.445312 404.554688 309.964844 400.097656 Z M 309.964844 400.097656 " fill-opacity="1" fill-rule="nonzero"/><path fill="#253036" d="M 173.425781 511.535156 C 169.859375 480.152344 191.550781 464.285156 201.953125 452.695312 C 221.566406 472.605469 258.257812 505.652344 283.21875 460.71875 C 291.933594 491.113281 305.167969 557.023438 307 602.46875 L 198.390625 602.46875 C 192.316406 577.710938 179.980469 532.945312 173.425781 511.535156 Z M 173.425781 511.535156 " fill-opacity="1" fill-rule="nonzero"/><path fill="#fcbfbc" d="M 239 295.15625 C 252.195312 290.042969 252.800781 266.996094 251.453125 256.109375 C 253.304688 260.742188 265.636719 283.214844 283.769531 283.527344 C 283.847656 286.285156 284.300781 291.34375 285.464844 295.269531 C 286.308594 298.113281 287.113281 301.335938 285.695312 303.9375 C 276.730469 320.355469 251.390625 305.464844 239 295.15625 Z M 239 295.15625 " fill-opacity="1" fill-rule="nonzero"/><path fill="#fcbfbc" d="M 257.511719 238.605469 C 279.027344 236.246094 286.097656 220.699219 287.070312 212.636719 C 291.914062 214 301.878906 219.21875 302.953125 229.183594 C 304.300781 241.636719 309.6875 278.664062 288.816406 283.039062 C 287.089844 283.402344 285.40625 283.554688 283.769531 283.523438 C 265.636719 283.214844 253.304688 260.742188 251.453125 256.109375 C 240.683594 251.0625 239.671875 239.617188 243.710938 235.578125 C 246.945312 232.347656 254.257812 236.25 257.511719 238.605469 Z M 257.511719 238.605469 " fill-opacity="1" fill-rule="nonzero"/><path fill="#253036" d="M 285.433594 267.964844 C 285.035156 268.257812 284.949219 268.8125 285.238281 269.210938 C 286.75 271.285156 289.019531 271.5625 290.847656 271.207031 C 291.757812 271.03125 292.605469 270.6875 293.273438 270.300781 C 293.605469 270.109375 293.910156 269.894531 294.160156 269.667969 C 294.398438 269.457031 294.636719 269.191406 294.78125 268.882812 C 294.992188 268.441406 294.804688 267.910156 294.359375 267.695312 C 293.914062 267.488281 293.382812 267.675781 293.171875 268.121094 C 293.171875 268.121094 293.164062 268.140625 293.128906 268.179688 C 293.09375 268.222656 293.042969 268.277344 292.972656 268.339844 C 292.828125 268.46875 292.628906 268.613281 292.375 268.761719 C 291.871094 269.054688 291.214844 269.316406 290.503906 269.457031 C 289.089844 269.730469 287.640625 269.480469 286.675781 268.160156 C 286.386719 267.761719 285.832031 267.675781 285.433594 267.964844 Z M 285.433594 267.964844 " fill-opacity="1" fill-rule="evenodd"/><path fill="#253036" d="M 250.65625 243.417969 C 249.4375 242.261719 248.007812 241.476562 247.09375 241.121094 L 247.738281 239.460938 C 248.839844 239.890625 250.476562 240.789062 251.886719 242.125 C 253.292969 243.464844 254.546875 245.316406 254.699219 247.636719 L 252.921875 247.753906 C 252.808594 246.035156 251.871094 244.578125 250.65625 243.417969 Z M 262.171875 270.84375 C 267.691406 277.011719 275.089844 282.484375 283.785156 282.636719 L 283.753906 284.417969 C 274.316406 284.253906 266.484375 278.335938 260.84375 272.03125 C 255.191406 265.714844 251.589844 258.851562 250.628906 256.441406 L 252.28125 255.78125 C 253.171875 258.003906 256.664062 264.6875 262.171875 270.84375 Z M 262.171875 270.84375 " fill-opacity="1" fill-rule="evenodd"/><path fill="#253036" d="M 257.511719 238.605469 C 279.027344 236.246094 286.097656 220.699219 287.070312 212.636719 C 291.914062 214 301.878906 219.21875 302.953125 229.183594 C 304.300781 241.636719 309.6875 278.664062 288.816406 283.039062 C 287.089844 283.402344 285.40625 283.554688 283.765625 283.527344 C 283.847656 286.394531 284.625 295.375 285.894531 299.355469 C 296.195312 304.273438 302.53125 311.382812 306.398438 317.183594 C 308.152344 319.820312 311.855469 327.851562 314.421875 334.125 L 325.347656 316.75 C 330.570312 306.375 325.308594 297.261719 318.777344 289.097656 C 312.042969 280.683594 318.4375 275.296875 321.46875 265.875 C 324.496094 256.449219 318.101562 248.707031 313.726562 242.648438 C 309.351562 236.589844 310.695312 229.183594 309.351562 212.015625 C 308.273438 198.28125 286.910156 192.15625 276.363281 190.808594 C 264.359375 189.574219 238.929688 192.964844 233.277344 216.390625 C 228.898438 235.578125 235.695312 237.3125 221.160156 241.972656 C 203.320312 247.695312 221.160156 262.84375 209.378906 271.59375 C 202.53125 277.207031 192.949219 291.925781 209.378906 305.929688 L 239 295.15625 C 252.195312 290.039062 252.800781 266.996094 251.453125 256.109375 C 240.683594 251.0625 239.671875 239.617188 243.710938 235.578125 C 246.941406 232.347656 254.257812 236.25 257.511719 238.605469 Z M 257.511719 238.605469 " fill-opacity="1" fill-rule="nonzero"/><path fill="#253036" d="M 273.511719 237.796875 C 272.097656 239.945312 271.195312 242.964844 271.195312 246.347656 C 271.195312 249.734375 272.097656 252.753906 273.511719 254.902344 C 274.929688 257.0625 276.789062 258.25 278.714844 258.25 C 280.644531 258.25 282.503906 257.0625 283.921875 254.902344 C 285.335938 252.753906 286.242188 249.734375 286.242188 246.347656 C 286.242188 242.964844 285.335938 239.945312 283.921875 237.796875 C 282.503906 235.636719 280.644531 234.449219 278.714844 234.449219 C 276.789062 234.449219 274.929688 235.636719 273.511719 237.796875 Z M 272.019531 236.816406 C 273.648438 234.34375 275.996094 232.667969 278.714844 232.667969 C 281.4375 232.667969 283.785156 234.34375 285.410156 236.816406 C 286.855469 239.007812 287.789062 241.902344 287.984375 245.089844 C 288.511719 244.933594 289.101562 244.804688 289.703125 244.746094 C 290.3125 244.6875 291.003906 244.699219 291.660156 244.878906 C 291.832031 242.109375 292.617188 239.59375 293.835938 237.679688 C 295.210938 235.515625 297.222656 234.015625 299.585938 234.015625 C 301.949219 234.015625 303.960938 235.515625 305.335938 237.679688 C 306.71875 239.851562 307.546875 242.800781 307.546875 246.015625 C 307.546875 249.222656 306.71875 252.171875 305.335938 254.347656 C 303.960938 256.511719 301.949219 258.011719 299.585938 258.011719 C 297.269531 258.011719 295.285156 256.5625 293.914062 254.464844 C 292.597656 252.453125 291.765625 249.753906 291.644531 246.789062 C 291.238281 246.542969 290.636719 246.449219 289.871094 246.523438 C 289.210938 246.585938 288.539062 246.765625 288.015625 246.957031 C 287.914062 250.398438 286.953125 253.542969 285.410156 255.882812 C 283.785156 258.359375 281.4375 260.03125 278.714844 260.03125 C 275.996094 260.03125 273.648438 258.359375 272.019531 255.882812 C 270.390625 253.40625 269.410156 250.03125 269.410156 246.347656 C 269.410156 242.667969 270.390625 239.296875 272.019531 236.816406 Z M 295.339844 238.636719 C 294.167969 240.484375 293.410156 243.089844 293.410156 246.015625 C 293.410156 246.121094 293.410156 246.226562 293.410156 246.332031 C 293.46875 249.183594 294.238281 251.707031 295.40625 253.488281 C 296.578125 255.28125 298.074219 256.230469 299.585938 256.230469 C 301.128906 256.230469 302.652344 255.246094 303.832031 253.386719 C 305.007812 251.542969 305.765625 248.9375 305.765625 246.015625 C 305.765625 243.089844 305.007812 240.484375 303.832031 238.636719 C 302.652344 236.78125 301.128906 235.796875 299.585938 235.796875 C 298.046875 235.796875 296.523438 236.78125 295.339844 238.636719 Z M 295.339844 238.636719 " fill-opacity="1" fill-rule="evenodd"/><path fill="#253036" d="M 285.117188 244.664062 C 285.117188 246.339844 284.210938 247.695312 283.097656 247.695312 C 281.980469 247.695312 281.078125 246.339844 281.078125 244.664062 C 281.078125 242.992188 281.980469 241.636719 283.097656 241.636719 C 284.210938 241.636719 285.117188 242.992188 285.117188 244.664062 Z M 285.117188 244.664062 " fill-opacity="1" fill-rule="nonzero"/><path fill="#253036" d="M 303.292969 245.339844 C 303.292969 247.011719 302.386719 248.367188 301.273438 248.367188 C 300.15625 248.367188 299.25 247.011719 299.25 245.339844 C 299.25 243.667969 300.15625 242.308594 301.273438 242.308594 C 302.386719 242.308594 303.292969 243.667969 303.292969 245.339844 Z M 303.292969 245.339844 " fill-opacity="1" fill-rule="nonzero"/><path fill="#253036" d="M 270.867188 241.175781 L 257.402344 239.492188 L 257.625 237.722656 L 271.089844 239.40625 Z M 270.867188 241.175781 " fill-opacity="1" fill-rule="evenodd"/><path fill="#e83640" d="M 190.5 318.96875 C 195.851562 305.894531 224.082031 297.273438 238.644531 294.898438 C 253.5 305.59375 283.753906 321.464844 285.894531 299.355469 C 293.324219 301.730469 309.429688 312.550781 314.421875 336.796875 C 318.203125 355.164062 319.496094 371.28125 319.769531 381.117188 C 314.957031 383.9375 304.148438 387.667969 293.394531 384.550781 C 280.503906 397.851562 285.671875 460.765625 291.242188 486.574219 C 276.265625 505.117188 208.332031 487.464844 181.585938 476.765625 C 180.105469 441.1875 190.332031 402.523438 195.871094 378.203125 C 186.222656 377.671875 176.371094 372.871094 171.777344 370.675781 C 177.128906 351.953125 182.476562 338.582031 190.5 318.96875 Z M 190.5 318.96875 " fill-opacity="1" fill-rule="nonzero"/><path fill="#253036" d="M 285.042969 299.082031 C 285.195312 298.613281 285.695312 298.355469 286.164062 298.507812 C 293.882812 300.976562 310.234375 312.035156 315.296875 336.617188 C 319.085938 355.042969 320.386719 371.210938 320.660156 381.09375 L 320.675781 381.621094 L 320.222656 381.886719 C 315.359375 384.734375 304.566406 388.492188 293.679688 385.558594 C 292.34375 387.082031 291.1875 389.25 290.210938 391.992188 C 289.15625 394.96875 288.332031 398.558594 287.71875 402.609375 C 286.488281 410.710938 286.097656 420.574219 286.285156 430.855469 C 286.660156 451.421875 289.339844 473.542969 292.113281 486.386719 C 292.21875 486.867188 291.914062 487.339844 291.429688 487.445312 C 290.949219 487.546875 290.476562 487.242188 290.371094 486.761719 C 287.570312 473.792969 284.882812 451.554688 284.503906 430.890625 C 284.316406 420.554688 284.703125 410.582031 285.957031 402.339844 C 286.582031 398.21875 287.425781 394.511719 288.53125 391.398438 C 289.636719 388.292969 291.019531 385.722656 292.753906 383.929688 C 292.941406 383.742188 293.128906 383.558594 293.324219 383.386719 C 296.535156 380.511719 298.777344 376.148438 300.25 370.863281 C 301.722656 365.589844 302.410156 359.476562 302.5625 353.179688 C 302.875 340.59375 301.058594 327.425781 299.285156 319.15625 C 299.183594 318.675781 299.492188 318.199219 299.972656 318.097656 C 300.453125 317.992188 300.925781 318.300781 301.027344 318.78125 C 302.824219 327.152344 304.660156 340.464844 304.347656 353.222656 C 304.191406 359.605469 303.496094 365.878906 301.96875 371.34375 C 300.542969 376.457031 298.371094 380.925781 295.171875 384.089844 C 304.773438 386.292969 314.226562 383.175781 318.863281 380.609375 C 318.558594 370.773438 317.25 354.957031 313.550781 336.980469 C 308.625 313.066406 292.761719 302.488281 285.621094 300.203125 C 285.152344 300.054688 284.894531 299.550781 285.042969 299.082031 Z M 285.042969 299.082031 " fill-opacity="1" fill-rule="evenodd"/><path fill="#fcbfbc" d="M 274.808594 404.960938 C 252.339844 404.882812 241.578125 396.199219 209.71875 386.40625 L 208.285156 375.699219 C 204.523438 377.820312 200.214844 378.445312 195.871094 378.203125 C 188.695312 377.808594 181.40625 375.050781 176.253906 372.761719 C 176.910156 385.207031 177.734375 396.082031 180.035156 400.328125 C 186.089844 411.503906 227.566406 427.269531 279.011719 426.277344 C 284.640625 431.078125 286.390625 435.375 299.265625 437.65625 C 337.457031 437.65625 337.679688 426.558594 333.144531 426.277344 C 329.164062 426.027344 323.335938 427.851562 310.429688 424.976562 C 310.222656 424.054688 309.480469 423.007812 308.207031 422.042969 C 302.488281 417.691406 295.25 412.050781 289.179688 406.875 C 284.324219 402.742188 277.574219 403.875 274.808594 404.960938 Z M 274.808594 404.960938 " fill-opacity="1" fill-rule="nonzero"/><path fill="#253036" d="M 218.25 335.914062 C 218.738281 335.976562 219.085938 336.421875 219.023438 336.910156 C 217.746094 347.113281 215.554688 355.085938 213.121094 363.945312 C 212.132812 367.53125 211.109375 371.265625 210.085938 375.347656 L 210 375.691406 L 209.707031 375.882812 C 205.519531 378.589844 200.652344 379.359375 195.820312 379.09375 C 186.1875 378.5625 176.402344 373.878906 171.707031 371.628906 C 171.601562 371.578125 171.496094 371.527344 171.394531 371.480469 C 170.949219 371.269531 170.761719 370.734375 170.976562 370.289062 C 171.1875 369.847656 171.71875 369.660156 172.164062 369.871094 C 172.246094 369.910156 172.328125 369.953125 172.414062 369.992188 C 177.128906 372.25 186.644531 376.800781 195.917969 377.3125 C 200.390625 377.5625 204.738281 376.863281 208.445312 374.570312 C 209.457031 370.535156 210.46875 366.871094 211.429688 363.359375 C 213.851562 354.554688 215.996094 346.757812 217.253906 336.6875 C 217.3125 336.199219 217.757812 335.851562 218.25 335.914062 Z M 218.25 335.914062 " fill-opacity="1" fill-rule="evenodd"/><path fill="#253036" d="M 344.734375 298.128906 L 523.035156 298.128906 L 523.035156 426.507812 L 344.734375 426.507812 Z M 344.734375 298.128906 " fill-opacity="1" fill-rule="nonzero"/><path fill="#fcbfbc" d="M 504.574219 394.222656 L 522.523438 393.230469 C 524.1875 397.199219 521.339844 409.101562 520.542969 413.066406 C 515.554688 412.078125 484.632812 420.011719 473.664062 421.003906 C 464.890625 421.796875 463.359375 419.347656 463.691406 418.027344 C 457.308594 419.613281 456.378906 415.382812 456.710938 413.066406 C 451.132812 414.453125 451.242188 410.890625 452.246094 408.207031 C 452.5 407.53125 453.191406 407.15625 453.910156 407.167969 C 464.832031 407.347656 477.625 399.679688 485.640625 395.214844 C 476.667969 395.214844 467.691406 387.28125 471.679688 387.28125 L 494.613281 387.28125 C 497.804688 387.28125 502.246094 390.253906 504.574219 394.222656 Z M 504.574219 394.222656 " fill-opacity="1" fill-rule="nonzero"/><path fill="#253036" d="M 659.4375 565.582031 C 669.421875 507.8125 669.539062 462.464844 668.351562 447.011719 C 660.507812 447.011719 612.78125 460.085938 589.898438 466.625 L 572.949219 569.628906 L 658.734375 569.628906 C 658.96875 568.292969 659.203125 566.945312 659.4375 565.582031 Z M 659.4375 565.582031 " fill-opacity="1" fill-rule="nonzero"/><path fill="#fcbfbc" d="M 562.433594 212.542969 C 561.359375 204.519531 561.03125 194.058594 561.359375 185.796875 C 565.808594 183.121094 593.464844 179.554688 605.945312 195.605469 C 615.933594 208.441406 616.050781 225.914062 614.863281 233.046875 C 615.15625 239.585938 616.644531 253.550781 620.210938 257.117188 C 597.386719 288.5 587.519531 281.488281 585.441406 274.058594 C 588.292969 268.351562 586.332031 251.390625 585.441406 246.421875 C 579.597656 250.328125 573.636719 252.539062 569.023438 253.359375 C 565.648438 253.957031 563.152344 251.070312 563.175781 247.644531 C 563.242188 239.675781 563.355469 239.101562 562.433594 229.480469 C 562.433594 229.480469 558.328125 228.289062 556.03125 226.675781 C 555.445312 226.265625 555.320312 225.484375 555.617188 224.832031 C 558.863281 217.644531 560.570312 215.09375 562.433594 212.542969 Z M 562.433594 212.542969 " fill-opacity="1" fill-rule="nonzero"/><path fill="#253036" d="M 591.683594 188.472656 C 590.257812 183.480469 570.878906 186.394531 561.371094 188.472656 C 547.105469 175.992188 577.417969 171.53125 596.140625 167.96875 C 610.222656 165.285156 615.425781 172.902344 616.488281 177.773438 C 646.066406 191.144531 625.558594 233.9375 612.1875 241.960938 C 607.195312 241.25 605.054688 231.859375 605.054688 227.699219 C 606.839844 227.699219 610.761719 226.273438 612.1875 220.566406 C 613.96875 213.433594 604.164062 208.085938 602.378906 213.433594 C 600.953125 217.714844 597.625 218.785156 596.140625 218.785156 C 596.851562 213.078125 592.277344 206.300781 589.898438 203.628906 C 591.085938 200.65625 593.109375 193.464844 591.683594 188.472656 Z M 591.683594 188.472656 " fill-opacity="1" fill-rule="nonzero"/><path fill="#253036" d="M 569.394531 209.867188 C 569.394531 212.332031 568.597656 214.324219 567.613281 214.324219 C 566.628906 214.324219 565.828125 212.332031 565.828125 209.867188 C 565.828125 207.40625 566.628906 205.410156 567.613281 205.410156 C 568.597656 205.410156 569.394531 207.40625 569.394531 209.867188 Z M 569.394531 209.867188 " fill-opacity="1" fill-rule="nonzero"/><path fill="#e83640" d="M 515.902344 389.957031 C 544.21875 386.75 556.847656 384.503906 568.558594 382.453125 C 566.15625 358.902344 566.1875 338.433594 568.503906 321.308594 C 571.496094 299.175781 579.078125 282.636719 585.722656 272.273438 C 587.113281 278.8125 592.753906 283.328125 618.429688 256.226562 C 627.34375 263.953125 649.808594 289.214844 654.089844 321.308594 C 658.367188 353.402344 666.867188 431.558594 671.027344 460.382812 C 618.429688 464.839844 611.296875 480.890625 585.722656 475.539062 C 583.195312 464.046875 580.429688 451.296875 577.417969 437.203125 C 575.9375 430.273438 574.613281 423.515625 573.445312 416.945312 C 553.289062 417.695312 531.265625 417.3125 515.902344 417.589844 C 513.46875 408.339844 515.902344 397.976562 515.902344 389.957031 Z M 515.902344 389.957031 " fill-opacity="1" fill-rule="nonzero"/><path fill="#253036" d="M 594.359375 377.578125 C 594.460938 355.328125 598.914062 327.886719 605.96875 296.152344 L 607.707031 296.539062 C 600.578125 328.621094 596.140625 356.179688 596.140625 378.367188 L 596.140625 379.152344 L 595.359375 379.25 C 583.644531 380.714844 576.152344 382.027344 568.085938 383.441406 C 566.347656 383.746094 564.585938 384.054688 562.746094 384.371094 C 552.367188 386.15625 539.648438 388.164062 516.003906 390.839844 L 515.800781 389.070312 C 539.410156 386.398438 552.097656 384.394531 562.445312 382.613281 C 564.277344 382.296875 566.035156 381.988281 567.769531 381.6875 C 575.660156 380.300781 583.039062 379.011719 594.359375 377.578125 Z M 634.910156 368.691406 C 632.453125 384.996094 629.089844 397.84375 622.753906 408.25 L 622.699219 408.339844 L 622.625 408.414062 C 621.042969 409.996094 618.664062 411.28125 615.742188 412.347656 C 612.804688 413.417969 609.25 414.289062 605.242188 415.003906 C 597.226562 416.429688 587.324219 417.238281 576.796875 417.703125 C 563.207031 418.300781 548.5 418.328125 535.4375 418.355469 C 528.289062 418.367188 521.632812 418.378906 515.917969 418.484375 L 515.886719 416.703125 C 521.65625 416.59375 528.34375 416.582031 535.507812 416.570312 C 548.542969 416.546875 563.15625 416.519531 576.71875 415.921875 C 587.21875 415.457031 597.03125 414.652344 604.929688 413.246094 C 608.878906 412.542969 612.328125 411.695312 615.132812 410.671875 C 617.898438 409.664062 619.96875 408.515625 621.289062 407.226562 C 627.398438 397.148438 630.707031 384.613281 633.148438 368.425781 C 634.761719 357.722656 635.984375 345.488281 637.398438 331.367188 C 638.128906 324.046875 638.914062 316.21875 639.828125 307.839844 L 641.601562 308.03125 C 640.691406 316.367188 639.910156 324.171875 639.179688 331.480469 C 637.761719 345.636719 636.53125 357.945312 634.910156 368.691406 Z M 634.910156 368.691406 " fill-opacity="1" fill-rule="evenodd"/><path fill="#253036" d="M 572.46875 234.035156 C 572.910156 234.253906 573.085938 234.789062 572.867188 235.230469 C 571.953125 237.058594 570.089844 237.726562 568.394531 237.902344 C 566.6875 238.082031 564.917969 237.792969 563.800781 237.472656 C 563.328125 237.335938 563.054688 236.84375 563.1875 236.371094 C 563.324219 235.898438 563.816406 235.621094 564.289062 235.757812 C 565.253906 236.03125 566.785156 236.277344 568.210938 236.128906 C 569.652344 235.980469 570.757812 235.457031 571.273438 234.433594 C 571.492188 233.992188 572.027344 233.8125 572.46875 234.035156 Z M 572.46875 234.035156 " fill-opacity="1" fill-rule="evenodd"/></svg>