<svg xmlns="http://www.w3.org/2000/svg" xmlns:xlink="http://www.w3.org/1999/xlink" width="500" zoomAndPan="magnify" viewBox="0 0 375 374.999991" height="500" preserveAspectRatio="xMidYMid meet" version="1.0"><defs><clipPath id="ea8a3a284a"><path d="M 20.011719 20.011719 L 355 20.011719 L 355 355 L 20.011719 355 Z M 20.011719 20.011719 " clip-rule="nonzero"/></clipPath></defs><g clip-path="url(#ea8a3a284a)"><path fill="#d9d9d9" d="M 187.496094 20.011719 C 94.980469 20.011719 20.011719 94.980469 20.011719 187.496094 C 20.011719 280.007812 94.980469 354.980469 187.496094 354.980469 C 280.007812 354.980469 354.980469 280.007812 354.980469 187.496094 C 354.832031 94.980469 279.863281 20.011719 187.496094 20.011719 Z M 283.925781 234.332031 C 282.039062 246.65625 271.308594 255.648438 258.839844 255.648438 L 116.003906 255.648438 C 103.535156 255.648438 92.804688 246.65625 90.917969 234.332031 C 89.179688 222.875 87.4375 206.925781 87.292969 187.347656 C 87.4375 167.773438 89.035156 151.96875 90.917969 140.367188 C 92.804688 128.042969 103.535156 119.050781 116.003906 119.050781 L 258.839844 119.050781 C 271.308594 119.050781 282.039062 128.042969 283.925781 140.367188 C 285.664062 151.824219 287.40625 167.773438 287.550781 187.347656 C 287.40625 206.925781 285.664062 222.875 283.925781 234.332031 Z M 283.925781 234.332031 " fill-opacity="1" fill-rule="nonzero"/></g><path fill="#d9d9d9" d="M 166.324219 160.234375 L 166.324219 214.609375 L 216.929688 187.496094 Z M 166.324219 160.234375 " fill-opacity="1" fill-rule="nonzero"/></svg>